<?xml version="1.0" encoding="UTF-8" standalone="no"?>
<svg
   xmlns:dc="http://purl.org/dc/elements/1.1/"
   xmlns:cc="http://creativecommons.org/ns#"
   xmlns:rdf="http://www.w3.org/1999/02/22-rdf-syntax-ns#"
   xmlns:svg="http://www.w3.org/2000/svg"
   xmlns="http://www.w3.org/2000/svg"
   xmlns:sodipodi="http://sodipodi.sourceforge.net/DTD/sodipodi-0.dtd"
   xmlns:inkscape="http://www.inkscape.org/namespaces/inkscape"
   width="2000"
   height="2000"
   viewBox="0 0 529.16665 529.16669"
   version="1.1"
   id="svg16381"
   inkscape:version="1.0.2 (e86c8708, 2021-01-15)"
   sodipodi:docname="DSODigital.svg"
   inkscape:export-filename="/Users/sgiguere/Documents/DSOOverflow/DSODigital.png"
   inkscape:export-xdpi="96"
   inkscape:export-ydpi="96">
  <defs
     id="defs16375">
    <rect
       x="-107.06043"
       y="-81.869744"
       width="738.92692"
       height="491.21847"
       id="rect16580" />
    <filter
       style="color-interpolation-filters:sRGB;"
       inkscape:label="Drop Shadow"
       id="filter2846">
      <feFlood
         flood-opacity="0.498039"
         flood-color="rgb(0,0,0)"
         result="flood"
         id="feFlood2836" />
      <feComposite
         in="flood"
         in2="SourceGraphic"
         operator="in"
         result="composite1"
         id="feComposite2838" />
      <feGaussianBlur
         in="composite1"
         stdDeviation="2"
         result="blur"
         id="feGaussianBlur2840" />
      <feOffset
         dx="2"
         dy="2"
         result="offset"
         id="feOffset2842" />
      <feComposite
         in="SourceGraphic"
         in2="offset"
         operator="over"
         result="composite2"
         id="feComposite2844" />
    </filter>
    <filter
       style="color-interpolation-filters:sRGB;"
       inkscape:label="Drop Shadow"
       id="filter2858">
      <feFlood
         flood-opacity="0.498039"
         flood-color="rgb(0,0,0)"
         result="flood"
         id="feFlood2848" />
      <feComposite
         in="flood"
         in2="SourceGraphic"
         operator="in"
         result="composite1"
         id="feComposite2850" />
      <feGaussianBlur
         in="composite1"
         stdDeviation="2"
         result="blur"
         id="feGaussianBlur2852" />
      <feOffset
         dx="2"
         dy="2"
         result="offset"
         id="feOffset2854" />
      <feComposite
         in="SourceGraphic"
         in2="offset"
         operator="over"
         result="composite2"
         id="feComposite2856" />
    </filter>
    <filter
       style="color-interpolation-filters:sRGB;"
       inkscape:label="Drop Shadow"
       id="filter2870">
      <feFlood
         flood-opacity="0.498039"
         flood-color="rgb(0,0,0)"
         result="flood"
         id="feFlood2860" />
      <feComposite
         in="flood"
         in2="SourceGraphic"
         operator="in"
         result="composite1"
         id="feComposite2862" />
      <feGaussianBlur
         in="composite1"
         stdDeviation="2"
         result="blur"
         id="feGaussianBlur2864" />
      <feOffset
         dx="2"
         dy="2"
         result="offset"
         id="feOffset2866" />
      <feComposite
         in="SourceGraphic"
         in2="offset"
         operator="over"
         result="composite2"
         id="feComposite2868" />
    </filter>
  </defs>
  <sodipodi:namedview
     id="base"
     pagecolor="#ffffff"
     bordercolor="#666666"
     borderopacity="1.0"
     inkscape:pageopacity="0.0"
     inkscape:pageshadow="2"
     inkscape:zoom="0.29346263"
     inkscape:cx="954.2228"
     inkscape:cy="1173.8031"
     inkscape:document-units="mm"
     inkscape:current-layer="layer1"
     inkscape:document-rotation="0"
     showgrid="false"
     units="px"
     inkscape:window-width="1252"
     inkscape:window-height="943"
     inkscape:window-x="0"
     inkscape:window-y="23"
     inkscape:window-maximized="0" />
  <metadata
     id="metadata16378">
    <rdf:RDF>
      <cc:Work
         rdf:about="">
        <dc:format>image/svg+xml</dc:format>
        <dc:type
           rdf:resource="http://purl.org/dc/dcmitype/StillImage" />
        <dc:title />
      </cc:Work>
    </rdf:RDF>
  </metadata>
  <g
     inkscape:label="Layer 1"
     inkscape:groupmode="layer"
     id="layer1">
    <text
       xml:space="preserve"
       style="font-style:normal;font-variant:normal;font-weight:normal;font-stretch:normal;font-size:31.70270000000000010px;line-height:1.25;font-family:sans-serif;-inkscape-font-specification:sans-serif;fill:#f2f2f2;fill-opacity:1;stroke:none;stroke-width:1.08077;filter:url(#filter2870)"
       x="9.8487549"
       y="102.66441"
       id="text2767"
       inkscape:export-filename="/Users/sgiguere/Downloads/DSObinary1.png"
       inkscape:export-xdpi="96"
       inkscape:export-ydpi="96"><tspan
         sodipodi:role="line"
         id="tspan2765"
         x="9.8487549"
         y="102.66441"
         style="font-style:normal;font-variant:normal;font-weight:normal;font-stretch:normal;font-size:31.70270000000000010px;font-family:sans-serif;-inkscape-font-specification:sans-serif;stroke-width:1.08077;fill:#f2f2f2;">01100100 01100101 01110110</tspan><tspan
         sodipodi:role="line"
         x="9.8487549"
         y="142.29279"
         style="font-style:normal;font-variant:normal;font-weight:normal;font-stretch:normal;font-size:31.70270000000000010px;font-family:sans-serif;-inkscape-font-specification:sans-serif;stroke-width:1.08077;fill:#f2f2f2;"
         id="tspan2769">0<tspan
   style="fill:#f2f2f2;stroke-width:1.08077;"
   id="tspan20475">1110</tspan>011 0<tspan
   style="fill:#f2f2f2;stroke-width:1.08077;"
   id="tspan20497">110010</tspan>1 0<tspan
   style="fill:#f2f2f2;stroke-width:1.08077;"
   id="tspan20511">110001</tspan>1</tspan><tspan
         sodipodi:role="line"
         x="9.8487549"
         y="181.92116"
         style="font-style:normal;font-variant:normal;font-weight:normal;font-stretch:normal;font-size:31.70270000000000010px;font-family:sans-serif;-inkscape-font-specification:sans-serif;stroke-width:1.08077;fill:#f2f2f2;"
         id="tspan2771">0<tspan
   style="fill:#f2f2f2;stroke-width:1.08077;"
   id="tspan20477">11</tspan>01<tspan
   style="fill:#f2f2f2;stroke-width:1.08077;"
   id="tspan20495">11</tspan>1 0<tspan
   style="fill:#f2f2f2;stroke-width:1.08077;"
   id="tspan20501">11</tspan>10000 0<tspan
   style="fill:#f2f2f2;stroke-width:1.08077;"
   id="tspan20515">11</tspan>10<tspan
   style="fill:#f2f2f2;stroke-width:1.08077;"
   id="tspan20523">01</tspan>1</tspan></text>
    <text
       xml:space="preserve"
       style="font-style:normal;font-weight:normal;font-size:31.70270000000000010px;line-height:1.25;font-family:sans-serif;fill:#f2f2f2;fill-opacity:1;stroke:none;stroke-width:1.08077;filter:url(#filter2858)"
       x="9.8487549"
       y="221.07333"
       id="text2775"
       inkscape:export-filename="/Users/sgiguere/Downloads/DSObinary1.png"
       inkscape:export-xdpi="96"
       inkscape:export-ydpi="96"><tspan
         sodipodi:role="line"
         id="tspan2773"
         x="9.8487549"
         y="221.07333"
         style="font-size:31.70270000000000010px;stroke-width:1.08077;fill:#f2f2f2;">0<tspan
   style="fill:#f2f2f2;stroke-width:1.08077;"
   id="tspan20479">11</tspan>01<tspan
   style="fill:#f2f2f2;stroke-width:1.08077;"
   id="tspan20493">10</tspan>0 01<tspan
   style="fill:#f2f2f2;stroke-width:1.08077;"
   id="tspan20505">10</tspan>1111 0<tspan
   style="fill:#f2f2f2;stroke-width:1.08077;"
   id="tspan20517">11</tspan>01<tspan
   style="fill:#f2f2f2;stroke-width:1.08077;"
   id="tspan20525">11</tspan>0</tspan><tspan
         sodipodi:role="line"
         x="9.8487549"
         y="260.70172"
         style="font-size:31.70270000000000010px;stroke-width:1.08077;fill:#f2f2f2;"
         id="tspan2777">0<tspan
   style="fill:#f2f2f2;stroke-width:1.08077;"
   id="tspan20481">11</tspan>00<tspan
   style="fill:#f2f2f2;stroke-width:1.08077;"
   id="tspan20491">10</tspan>0 0110<tspan
   style="fill:#f2f2f2;stroke-width:1.08077;"
   id="tspan20507">11</tspan>11 0<tspan
   style="fill:#f2f2f2;stroke-width:1.08077;"
   id="tspan20519">11</tspan>01<tspan
   style="fill:#f2f2f2;stroke-width:1.08077;"
   id="tspan20527">11</tspan>0</tspan></text>
    <text
       xml:space="preserve"
       style="font-style:normal;font-weight:normal;font-size:31.70270000000000010px;line-height:1.25;font-family:sans-serif;fill:#f2f2f2;fill-opacity:1;stroke:none;stroke-width:1.08077;filter:url(#filter2846)"
       x="9.8487549"
       y="299.54111"
       id="text2781"
       inkscape:export-filename="/Users/sgiguere/Downloads/DSObinary1.png"
       inkscape:export-xdpi="96"
       inkscape:export-ydpi="96"><tspan
         sodipodi:role="line"
         id="tspan2779"
         x="9.8487549"
         y="299.54111"
         style="font-size:31.70270000000000010px;stroke-width:1.08077;fill:#f2f2f2;">0<tspan
   style="fill:#f2f2f2;stroke-width:1.08077;"
   id="tspan20483">11</tspan>00<tspan
   style="fill:#f2f2f2;stroke-width:1.08077;"
   id="tspan20489">11</tspan>1 01100<tspan
   style="fill:#f2f2f2;stroke-width:1.08077;"
   id="tspan20503">00</tspan>1 0<tspan
   style="fill:#f2f2f2;stroke-width:1.08077;"
   id="tspan20521">11</tspan>10<tspan
   style="fill:#f2f2f2;stroke-width:1.08077;"
   id="tspan20529">10</tspan>0</tspan><tspan
         sodipodi:role="line"
         x="9.8487549"
         y="339.16949"
         style="font-size:31.70270000000000010px;stroke-width:1.08077;fill:#f2f2f2;"
         id="tspan2783">0<tspan
   style="fill:#f2f2f2;stroke-width:1.08077;"
   id="tspan20487">1101</tspan>000 0<tspan
   style="fill:#f2f2f2;stroke-width:1.08077;"
   id="tspan20499">110010</tspan>1 0<tspan
   style="fill:#f2f2f2;stroke-width:1.08077;"
   id="tspan20513">111001</tspan>0</tspan><tspan
         sodipodi:role="line"
         x="9.8487549"
         y="378.79785"
         style="font-size:31.70270000000000010px;stroke-width:1.08077;fill:#f2f2f2;"
         id="tspan2785">01101001 01101110 01100111</tspan></text>
    <text
       xml:space="preserve"
       id="text16578"
       style="fill:black;fill-opacity:1;line-height:1.25;stroke:none;font-family:sans-serif;font-style:normal;font-weight:normal;font-size:10.58333333000000032px;white-space:pre;shape-inside:url(#rect16580);" />
    <g
       id="g17480"
       style="fill:#000080"
       transform="translate(-563.66455,55.402926)">
      <path
         d="m 611.58474,87.407134 h -12.47675 v -2.352935 h 4.79875 V 69.605325 h -4.79875 v -2.105258 q 0.97523,0 2.08978,-0.154798 1.11455,-0.170278 1.6873,-0.479875 0.71208,-0.386996 1.11455,-0.975229 0.41796,-0.603714 0.47988,-1.609903 h 2.39937 v 20.773937 h 4.70587 z"
         style="font-style:normal;font-variant:normal;font-weight:normal;font-stretch:normal;font-size:31.70270000000000010px;line-height:1.25;font-family:sans-serif;-inkscape-font-specification:sans-serif;fill:#000080;fill-opacity:1;stroke:none;stroke-width:1.08077"
         id="path16830" />
      <path
         d="M 631.77044,87.407134 H 619.2937 v -2.352935 h 4.79875 V 69.605325 h -4.79875 v -2.105258 q 0.97523,0 2.08977,-0.154798 1.11455,-0.170278 1.68731,-0.479875 0.71207,-0.386996 1.11454,-0.975229 0.41796,-0.603714 0.47988,-1.609903 h 2.39937 v 20.773937 h 4.70587 z"
         style="font-style:normal;font-variant:normal;font-weight:normal;font-stretch:normal;font-size:31.70270000000000010px;line-height:1.25;font-family:sans-serif;-inkscape-font-specification:sans-serif;fill:#000080;fill-opacity:1;stroke:none;stroke-width:1.08077"
         id="path16832" />
      <path
         d="M 651.95615,87.407134 H 639.4794 v -2.352935 h 4.79875 V 69.605325 h -4.79875 v -2.105258 q 0.97523,0 2.08978,-0.154798 1.11455,-0.170278 1.6873,-0.479875 0.71207,-0.386996 1.11455,-0.975229 0.41795,-0.603714 0.47987,-1.609903 h 2.39938 v 20.773937 h 4.70587 z"
         style="font-style:normal;font-variant:normal;font-weight:normal;font-stretch:normal;font-size:31.70270000000000010px;line-height:1.25;font-family:sans-serif;-inkscape-font-specification:sans-serif;fill:#000080;fill-opacity:1;stroke:none;stroke-width:1.08077"
         id="path16834" />
      <path
         d="m 673.42668,75.874657 q 0,6.207414 -1.95046,9.117623 -1.93498,2.894728 -6.02166,2.894728 -4.14859,0 -6.06809,-2.941168 -1.90402,-2.941168 -1.90402,-9.040223 0,-6.145494 1.93498,-9.071183 1.93498,-2.941168 6.03713,-2.941168 4.1486,0 6.05262,2.987608 1.9195,2.972128 1.9195,8.993783 z m -4.0712,7.027845 q 0.54179,-1.253867 0.72755,-2.941168 0.20124,-1.702782 0.20124,-4.086677 0,-2.352934 -0.20124,-4.086676 -0.18576,-1.733741 -0.74303,-2.941168 -0.54179,-1.191947 -1.48606,-1.795661 -0.92879,-0.603713 -2.39938,-0.603713 -1.4551,0 -2.41485,0.603713 -0.94427,0.603714 -1.50155,1.82662 -0.52631,1.145508 -0.72755,2.987608 -0.18576,1.842101 -0.18576,4.040237 0,2.414854 0.17028,4.040237 0.17028,1.625382 0.72755,2.910208 0.51084,1.207427 1.43963,1.842101 0.94427,0.634673 2.49225,0.634673 1.45511,0 2.41486,-0.603714 0.95975,-0.603713 1.48606,-1.82662 z"
         style="font-style:normal;font-variant:normal;font-weight:normal;font-stretch:normal;font-size:31.70270000000000010px;line-height:1.25;font-family:sans-serif;-inkscape-font-specification:sans-serif;fill:#000080;fill-opacity:1;stroke:none;stroke-width:1.08077"
         id="path16836" />
      <path
         d="m 784.21584,87.407134 h -12.47675 v -2.352935 h 4.79875 V 69.605325 h -4.79875 v -2.105258 q 0.97523,0 2.08978,-0.154798 1.11455,-0.170278 1.6873,-0.479875 0.71208,-0.386996 1.11455,-0.975229 0.41796,-0.603714 0.47988,-1.609903 h 2.39937 v 20.773937 h 4.70587 z"
         style="font-style:normal;font-variant:normal;font-weight:normal;font-stretch:normal;font-size:31.70270000000000010px;line-height:1.25;font-family:sans-serif;-inkscape-font-specification:sans-serif;fill:#000080;fill-opacity:1;stroke:none;stroke-width:1.08077"
         id="path16846" />
      <path
         d="m 804.40155,87.407134 h -12.47674 v -2.352935 h 4.79875 V 69.605325 h -4.79875 v -2.105258 q 0.97523,0 2.08978,-0.154798 1.11454,-0.170278 1.6873,-0.479875 0.71207,-0.386996 1.11455,-0.975229 0.41795,-0.603714 0.47987,-1.609903 h 2.39937 v 20.773937 h 4.70587 z"
         style="font-style:normal;font-variant:normal;font-weight:normal;font-stretch:normal;font-size:31.70270000000000010px;line-height:1.25;font-family:sans-serif;-inkscape-font-specification:sans-serif;fill:#000080;fill-opacity:1;stroke:none;stroke-width:1.08077"
         id="path16848" />
      <path
         d="m 825.87208,75.874657 q 0,6.207414 -1.95046,9.117623 -1.93498,2.894728 -6.02165,2.894728 -4.1486,0 -6.0681,-2.941168 -1.90402,-2.941168 -1.90402,-9.040223 0,-6.145494 1.93498,-9.071183 1.93498,-2.941168 6.03714,-2.941168 4.14859,0 6.05261,2.987608 1.9195,2.972128 1.9195,8.993783 z m -4.0712,7.027845 q 0.5418,-1.253867 0.72756,-2.941168 0.20123,-1.702782 0.20123,-4.086677 0,-2.352934 -0.20123,-4.086676 -0.18576,-1.733741 -0.74304,-2.941168 -0.54179,-1.191947 -1.48606,-1.795661 -0.92879,-0.603713 -2.39937,-0.603713 -1.45511,0 -2.41486,0.603713 -0.94427,0.603714 -1.50154,1.82662 -0.52632,1.145508 -0.72755,2.987608 -0.18576,1.842101 -0.18576,4.040237 0,2.414854 0.17028,4.040237 0.17027,1.625382 0.72755,2.910208 0.51083,1.207427 1.43962,1.842101 0.94427,0.634673 2.49226,0.634673 1.4551,0 2.41485,-0.603714 0.95975,-0.603713 1.48606,-1.82662 z"
         style="font-style:normal;font-variant:normal;font-weight:normal;font-stretch:normal;font-size:31.70270000000000010px;line-height:1.25;font-family:sans-serif;-inkscape-font-specification:sans-serif;fill:#000080;fill-opacity:1;stroke:none;stroke-width:1.08077"
         id="path16850" />
      <path
         d="m 846.05778,75.874657 q 0,6.207414 -1.95046,9.117623 -1.93498,2.894728 -6.02166,2.894728 -4.14859,0 -6.06809,-2.941168 -1.90402,-2.941168 -1.90402,-9.040223 0,-6.145494 1.93498,-9.071183 1.93498,-2.941168 6.03713,-2.941168 4.1486,0 6.05262,2.987608 1.9195,2.972128 1.9195,8.993783 z m -4.0712,7.027845 q 0.5418,-1.253867 0.72756,-2.941168 0.20123,-1.702782 0.20123,-4.086677 0,-2.352934 -0.20123,-4.086676 -0.18576,-1.733741 -0.74304,-2.941168 -0.54179,-1.191947 -1.48606,-1.795661 -0.92879,-0.603713 -2.39938,-0.603713 -1.4551,0 -2.41485,0.603713 -0.94427,0.603714 -1.50154,1.82662 -0.52632,1.145508 -0.72756,2.987608 -0.18575,1.842101 -0.18575,4.040237 0,2.414854 0.17027,4.040237 0.17028,1.625382 0.72756,2.910208 0.51083,1.207427 1.43962,1.842101 0.94427,0.634673 2.49225,0.634673 1.45511,0 2.41486,-0.603714 0.95975,-0.603713 1.48606,-1.82662 z"
         style="font-style:normal;font-variant:normal;font-weight:normal;font-stretch:normal;font-size:31.70270000000000010px;line-height:1.25;font-family:sans-serif;-inkscape-font-specification:sans-serif;fill:#000080;fill-opacity:1;stroke:none;stroke-width:1.08077"
         id="path16852" />
      <path
         d="m 864.95867,87.407134 h -12.47675 v -2.352935 h 4.79875 V 69.605325 h -4.79875 v -2.105258 q 0.97523,0 2.08978,-0.154798 1.11455,-0.170278 1.6873,-0.479875 0.71207,-0.386996 1.11455,-0.975229 0.41795,-0.603714 0.47987,-1.609903 h 2.39938 v 20.773937 h 4.70587 z"
         style="font-style:normal;font-variant:normal;font-weight:normal;font-stretch:normal;font-size:31.70270000000000010px;line-height:1.25;font-family:sans-serif;-inkscape-font-specification:sans-serif;fill:#000080;fill-opacity:1;stroke:none;stroke-width:1.08077"
         id="path16854" />
      <path
         d="m 886.42919,75.874657 q 0,6.207414 -1.95046,9.117623 -1.93497,2.894728 -6.02165,2.894728 -4.1486,0 -6.0681,-2.941168 -1.90402,-2.941168 -1.90402,-9.040223 0,-6.145494 1.93498,-9.071183 1.93498,-2.941168 6.03714,-2.941168 4.14859,0 6.05261,2.987608 1.9195,2.972128 1.9195,8.993783 z m -4.07119,7.027845 q 0.54179,-1.253867 0.72755,-2.941168 0.20124,-1.702782 0.20124,-4.086677 0,-2.352934 -0.20124,-4.086676 -0.18576,-1.733741 -0.74303,-2.941168 -0.5418,-1.191947 -1.48607,-1.795661 -0.92879,-0.603713 -2.39937,-0.603713 -1.45511,0 -2.41486,0.603713 -0.94426,0.603714 -1.50154,1.82662 -0.52631,1.145508 -0.72755,2.987608 -0.18576,1.842101 -0.18576,4.040237 0,2.414854 0.17028,4.040237 0.17028,1.625382 0.72755,2.910208 0.51084,1.207427 1.43963,1.842101 0.94427,0.634673 2.49225,0.634673 1.4551,0 2.41485,-0.603714 0.95975,-0.603713 1.48607,-1.82662 z"
         style="font-style:normal;font-variant:normal;font-weight:normal;font-stretch:normal;font-size:31.70270000000000010px;line-height:1.25;font-family:sans-serif;-inkscape-font-specification:sans-serif;fill:#000080;fill-opacity:1;stroke:none;stroke-width:1.08077"
         id="path16856" />
      <path
         d="M 956.84694,87.407134 H 944.3702 v -2.352935 h 4.79875 V 69.605325 h -4.79875 v -2.105258 q 0.97523,0 2.08977,-0.154798 1.11455,-0.170278 1.68731,-0.479875 0.71207,-0.386996 1.11454,-0.975229 0.41796,-0.603714 0.47988,-1.609903 h 2.39937 v 20.773937 h 4.70587 z"
         style="font-style:normal;font-variant:normal;font-weight:normal;font-stretch:normal;font-size:31.70270000000000010px;line-height:1.25;font-family:sans-serif;-inkscape-font-specification:sans-serif;fill:#000080;fill-opacity:1;stroke:none;stroke-width:1.08077"
         id="path16862" />
      <path
         d="M 977.03264,87.407134 H 964.5559 v -2.352935 h 4.79874 V 69.605325 h -4.79874 v -2.105258 q 0.97523,0 2.08977,-0.154798 1.11455,-0.170278 1.68731,-0.479875 0.71207,-0.386996 1.11454,-0.975229 0.41796,-0.603714 0.47988,-1.609903 h 2.39937 v 20.773937 h 4.70587 z"
         style="font-style:normal;font-variant:normal;font-weight:normal;font-stretch:normal;font-size:31.70270000000000010px;line-height:1.25;font-family:sans-serif;-inkscape-font-specification:sans-serif;fill:#000080;fill-opacity:1;stroke:none;stroke-width:1.08077"
         id="path16864" />
      <path
         d="m 998.5032,75.874657 q 0,6.207414 -1.95046,9.117623 -1.93498,2.894728 -6.02166,2.894728 -4.14859,0 -6.06809,-2.941168 -1.90402,-2.941168 -1.90402,-9.040223 0,-6.145494 1.93498,-9.071183 1.93498,-2.941168 6.03713,-2.941168 4.1486,0 6.05262,2.987608 1.9195,2.972128 1.9195,8.993783 z m -4.0712,7.027845 q 0.5418,-1.253867 0.72755,-2.941168 0.20124,-1.702782 0.20124,-4.086677 0,-2.352934 -0.20124,-4.086676 -0.18575,-1.733741 -0.74303,-2.941168 -0.54179,-1.191947 -1.48606,-1.795661 -0.92879,-0.603713 -2.39938,-0.603713 -1.4551,0 -2.41485,0.603713 -0.94427,0.603714 -1.50154,1.82662 -0.52632,1.145508 -0.72756,2.987608 -0.18575,1.842101 -0.18575,4.040237 0,2.414854 0.17027,4.040237 0.17028,1.625382 0.72756,2.910208 0.51083,1.207427 1.43962,1.842101 0.94427,0.634673 2.49225,0.634673 1.45511,0 2.41486,-0.603714 0.95975,-0.603713 1.48606,-1.82662 z"
         style="font-style:normal;font-variant:normal;font-weight:normal;font-stretch:normal;font-size:31.70270000000000010px;line-height:1.25;font-family:sans-serif;-inkscape-font-specification:sans-serif;fill:#000080;fill-opacity:1;stroke:none;stroke-width:1.08077"
         id="path16866" />
      <path
         d="m 1018.6889,75.874657 q 0,6.207414 -1.9505,9.117623 -1.9349,2.894728 -6.0216,2.894728 -4.1486,0 -6.0681,-2.941168 -1.904,-2.941168 -1.904,-9.040223 0,-6.145494 1.9349,-9.071183 1.935,-2.941168 6.0372,-2.941168 4.1486,0 6.0526,2.987608 1.9195,2.972128 1.9195,8.993783 z m -4.0712,7.027845 q 0.5418,-1.253867 0.7276,-2.941168 0.2012,-1.702782 0.2012,-4.086677 0,-2.352934 -0.2012,-4.086676 -0.1858,-1.733741 -0.7431,-2.941168 -0.5418,-1.191947 -1.486,-1.795661 -0.9288,-0.603713 -2.3994,-0.603713 -1.4551,0 -2.4149,0.603713 -0.9442,0.603714 -1.5015,1.82662 -0.5263,1.145508 -0.7276,2.987608 -0.1857,1.842101 -0.1857,4.040237 0,2.414854 0.1703,4.040237 0.1702,1.625382 0.7275,2.910208 0.5108,1.207427 1.4396,1.842101 0.9443,0.634673 2.4923,0.634673 1.4551,0 2.4148,-0.603714 0.9598,-0.603713 1.4861,-1.82662 z"
         style="font-style:normal;font-variant:normal;font-weight:normal;font-stretch:normal;font-size:31.70270000000000010px;line-height:1.25;font-family:sans-serif;-inkscape-font-specification:sans-serif;fill:#000080;fill-opacity:1;stroke:none;stroke-width:1.08077"
         id="path16868" />
      <path
         d="m 1038.8746,75.874657 q 0,6.207414 -1.9505,9.117623 -1.9349,2.894728 -6.0216,2.894728 -4.1486,0 -6.0681,-2.941168 -1.904,-2.941168 -1.904,-9.040223 0,-6.145494 1.9349,-9.071183 1.935,-2.941168 6.0372,-2.941168 4.1486,0 6.0526,2.987608 1.9195,2.972128 1.9195,8.993783 z m -4.0712,7.027845 q 0.5418,-1.253867 0.7276,-2.941168 0.2012,-1.702782 0.2012,-4.086677 0,-2.352934 -0.2012,-4.086676 -0.1858,-1.733741 -0.7431,-2.941168 -0.5418,-1.191947 -1.486,-1.795661 -0.9288,-0.603713 -2.3994,-0.603713 -1.4551,0 -2.4149,0.603713 -0.9442,0.603714 -1.5015,1.82662 -0.5263,1.145508 -0.7276,2.987608 -0.1857,1.842101 -0.1857,4.040237 0,2.414854 0.1703,4.040237 0.1702,1.625382 0.7275,2.910208 0.5108,1.207427 1.4396,1.842101 0.9443,0.634673 2.4923,0.634673 1.4551,0 2.4148,-0.603714 0.9598,-0.603713 1.4861,-1.82662 z"
         style="font-style:normal;font-variant:normal;font-weight:normal;font-stretch:normal;font-size:31.70270000000000010px;line-height:1.25;font-family:sans-serif;-inkscape-font-specification:sans-serif;fill:#000080;fill-opacity:1;stroke:none;stroke-width:1.08077"
         id="path16870" />
      <path
         d="m 1057.7755,87.407134 h -12.4768 v -2.352935 h 4.7988 V 69.605325 h -4.7988 v -2.105258 q 0.9753,0 2.0898,-0.154798 1.1146,-0.170278 1.6873,-0.479875 0.7121,-0.386996 1.1146,-0.975229 0.4179,-0.603714 0.4798,-1.609903 h 2.3994 v 20.773937 h 4.7059 z"
         style="font-style:normal;font-variant:normal;font-weight:normal;font-stretch:normal;font-size:31.70270000000000010px;line-height:1.25;font-family:sans-serif;-inkscape-font-specification:sans-serif;fill:#000080;fill-opacity:1;stroke:none;stroke-width:1.08077"
         id="path16872" />
      <path
         d="m 611.58474,127.03551 h -12.47675 v -2.35294 h 4.79875 V 109.2337 h -4.79875 v -2.10526 q 0.97523,0 2.08978,-0.1548 1.11455,-0.17027 1.6873,-0.47987 0.71208,-0.387 1.11455,-0.97523 0.41796,-0.60371 0.47988,-1.6099 h 2.39937 v 20.77393 h 4.70587 z"
         style="font-style:normal;font-variant:normal;font-weight:normal;font-stretch:normal;font-size:31.70270000000000010px;line-height:1.25;font-family:sans-serif;-inkscape-font-specification:sans-serif;fill:#000080;fill-opacity:1;stroke:none;stroke-width:1.08077"
         id="path16878" />
      <path
         d="M 631.77044,127.03551 H 619.2937 v -2.35294 h 4.79875 V 109.2337 h -4.79875 v -2.10526 q 0.97523,0 2.08977,-0.1548 1.11455,-0.17027 1.68731,-0.47987 0.71207,-0.387 1.11454,-0.97523 0.41796,-0.60371 0.47988,-1.6099 h 2.39937 v 20.77393 h 4.70587 z"
         style="font-style:normal;font-variant:normal;font-weight:normal;font-stretch:normal;font-size:31.70270000000000010px;line-height:1.25;font-family:sans-serif;-inkscape-font-specification:sans-serif;fill:#000080;fill-opacity:1;stroke:none;stroke-width:1.08077"
         id="path16880" />
      <path
         d="M 692.32755,127.03551 H 679.8508 v -2.35294 h 4.79875 V 109.2337 h -4.79875 v -2.10526 q 0.97523,0 2.08978,-0.1548 1.11455,-0.17027 1.6873,-0.47987 0.71207,-0.387 1.11455,-0.97523 0.41796,-0.60371 0.47988,-1.6099 h 2.39937 v 20.77393 h 4.70587 z"
         style="font-style:normal;font-variant:normal;font-weight:normal;font-stretch:normal;font-size:31.70270000000000010px;line-height:1.25;font-family:sans-serif;-inkscape-font-specification:sans-serif;fill:#000080;fill-opacity:1;stroke:none;stroke-width:1.08077"
         id="path16886" />
      <path
         d="m 712.51326,127.03551 h -12.47675 v -2.35294 h 4.79875 V 109.2337 h -4.79875 v -2.10526 q 0.97523,0 2.08978,-0.1548 1.11455,-0.17027 1.6873,-0.47987 0.71207,-0.387 1.11455,-0.97523 0.41795,-0.60371 0.47987,-1.6099 h 2.39938 v 20.77393 h 4.70587 z"
         style="font-style:normal;font-variant:normal;font-weight:normal;font-stretch:normal;font-size:31.70270000000000010px;line-height:1.25;font-family:sans-serif;-inkscape-font-specification:sans-serif;fill:#000080;fill-opacity:1;stroke:none;stroke-width:1.08077"
         id="path16888" />
      <path
         d="m 784.21584,127.03551 h -12.47675 v -2.35294 h 4.79875 V 109.2337 h -4.79875 v -2.10526 q 0.97523,0 2.08978,-0.1548 1.11455,-0.17027 1.6873,-0.47987 0.71208,-0.387 1.11455,-0.97523 0.41796,-0.60371 0.47988,-1.6099 h 2.39937 v 20.77393 h 4.70587 z"
         style="font-style:normal;font-variant:normal;font-weight:normal;font-stretch:normal;font-size:31.70270000000000010px;line-height:1.25;font-family:sans-serif;-inkscape-font-specification:sans-serif;fill:#000080;fill-opacity:1;stroke:none;stroke-width:1.08077"
         id="path16894" />
      <path
         d="m 804.40155,127.03551 h -12.47674 v -2.35294 h 4.79875 V 109.2337 h -4.79875 v -2.10526 q 0.97523,0 2.08978,-0.1548 1.11454,-0.17027 1.6873,-0.47987 0.71207,-0.387 1.11455,-0.97523 0.41795,-0.60371 0.47987,-1.6099 h 2.39937 v 20.77393 h 4.70587 z"
         style="font-style:normal;font-variant:normal;font-weight:normal;font-stretch:normal;font-size:31.70270000000000010px;line-height:1.25;font-family:sans-serif;-inkscape-font-specification:sans-serif;fill:#000080;fill-opacity:1;stroke:none;stroke-width:1.08077"
         id="path16896" />
      <path
         d="M 956.84694,127.03551 H 944.3702 v -2.35294 h 4.79875 V 109.2337 h -4.79875 v -2.10526 q 0.97523,0 2.08977,-0.1548 1.11455,-0.17027 1.68731,-0.47987 0.71207,-0.387 1.11454,-0.97523 0.41796,-0.60371 0.47988,-1.6099 h 2.39937 v 20.77393 h 4.70587 z"
         style="font-style:normal;font-variant:normal;font-weight:normal;font-stretch:normal;font-size:31.70270000000000010px;line-height:1.25;font-family:sans-serif;-inkscape-font-specification:sans-serif;fill:#000080;fill-opacity:1;stroke:none;stroke-width:1.08077"
         id="path16910" />
      <path
         d="M 977.03264,127.03551 H 964.5559 v -2.35294 h 4.79874 V 109.2337 h -4.79874 v -2.10526 q 0.97523,0 2.08977,-0.1548 1.11455,-0.17027 1.68731,-0.47987 0.71207,-0.387 1.11454,-0.97523 0.41796,-0.60371 0.47988,-1.6099 h 2.39937 v 20.77393 h 4.70587 z"
         style="font-style:normal;font-variant:normal;font-weight:normal;font-stretch:normal;font-size:31.70270000000000010px;line-height:1.25;font-family:sans-serif;-inkscape-font-specification:sans-serif;fill:#000080;fill-opacity:1;stroke:none;stroke-width:1.08077"
         id="path16912" />
      <path
         d="m 1038.8746,115.50303 q 0,6.20742 -1.9505,9.11762 -1.9349,2.89473 -6.0216,2.89473 -4.1486,0 -6.0681,-2.94117 -1.904,-2.94116 -1.904,-9.04022 0,-6.14549 1.9349,-9.07118 1.935,-2.94117 6.0372,-2.94117 4.1486,0 6.0526,2.98761 1.9195,2.97213 1.9195,8.99378 z m -4.0712,7.02785 q 0.5418,-1.25387 0.7276,-2.94117 0.2012,-1.70278 0.2012,-4.08668 0,-2.35293 -0.2012,-4.08667 -0.1858,-1.73375 -0.7431,-2.94117 -0.5418,-1.19195 -1.486,-1.79566 -0.9288,-0.60372 -2.3994,-0.60372 -1.4551,0 -2.4149,0.60372 -0.9442,0.60371 -1.5015,1.82662 -0.5263,1.1455 -0.7276,2.98761 -0.1857,1.8421 -0.1857,4.04023 0,2.41486 0.1703,4.04024 0.1702,1.62538 0.7275,2.91021 0.5108,1.20742 1.4396,1.8421 0.9443,0.63467 2.4923,0.63467 1.4551,0 2.4148,-0.60371 0.9598,-0.60372 1.4861,-1.82662 z"
         style="font-style:normal;font-variant:normal;font-weight:normal;font-stretch:normal;font-size:31.70270000000000010px;line-height:1.25;font-family:sans-serif;-inkscape-font-specification:sans-serif;fill:#000080;fill-opacity:1;stroke:none;stroke-width:1.08077"
         id="path16918" />
      <path
         d="m 1057.7755,127.03551 h -12.4768 v -2.35294 h 4.7988 V 109.2337 h -4.7988 v -2.10526 q 0.9753,0 2.0898,-0.1548 1.1146,-0.17027 1.6873,-0.47987 0.7121,-0.387 1.1146,-0.97523 0.4179,-0.60371 0.4798,-1.6099 h 2.3994 v 20.77393 h 4.7059 z"
         style="font-style:normal;font-variant:normal;font-weight:normal;font-stretch:normal;font-size:31.70270000000000010px;line-height:1.25;font-family:sans-serif;-inkscape-font-specification:sans-serif;fill:#000080;fill-opacity:1;stroke:none;stroke-width:1.08077"
         id="path16920" />
      <path
         d="m 611.58474,166.18768 h -12.47675 v -2.35293 h 4.79875 v -15.44888 h -4.79875 v -2.10525 q 0.97523,0 2.08978,-0.1548 1.11455,-0.17028 1.6873,-0.47988 0.71208,-0.38699 1.11455,-0.97523 0.41796,-0.60371 0.47988,-1.6099 h 2.39937 v 20.77394 h 4.70587 z"
         style="font-style:normal;font-weight:normal;font-size:31.70270000000000010px;line-height:1.25;font-family:sans-serif;fill:#000080;fill-opacity:1;stroke:none;stroke-width:1.08077"
         id="path16927" />
      <path
         d="M 631.77044,166.18768 H 619.2937 v -2.35293 h 4.79875 v -15.44888 h -4.79875 v -2.10525 q 0.97523,0 2.08977,-0.1548 1.11455,-0.17028 1.68731,-0.47988 0.71207,-0.38699 1.11454,-0.97523 0.41796,-0.60371 0.47988,-1.6099 h 2.39937 v 20.77394 h 4.70587 z"
         style="font-style:normal;font-weight:normal;font-size:31.70270000000000010px;line-height:1.25;font-family:sans-serif;fill:#000080;fill-opacity:1;stroke:none;stroke-width:1.08077"
         id="path16929" />
      <path
         d="M 692.32755,166.18768 H 679.8508 v -2.35293 h 4.79875 v -15.44888 h -4.79875 v -2.10525 q 0.97523,0 2.08978,-0.1548 1.11455,-0.17028 1.6873,-0.47988 0.71207,-0.38699 1.11455,-0.97523 0.41796,-0.60371 0.47988,-1.6099 h 2.39937 v 20.77394 h 4.70587 z"
         style="font-style:normal;font-weight:normal;font-size:31.70270000000000010px;line-height:1.25;font-family:sans-serif;fill:#000080;fill-opacity:1;stroke:none;stroke-width:1.08077"
         id="path16935" />
      <path
         d="m 713.79808,154.65521 q 0,6.20741 -1.95046,9.11762 -1.93498,2.89473 -6.02165,2.89473 -4.1486,0 -6.0681,-2.94117 -1.90402,-2.94117 -1.90402,-9.04022 0,-6.1455 1.93498,-9.07119 1.93498,-2.94116 6.03714,-2.94116 4.14859,0 6.05261,2.9876 1.9195,2.97213 1.9195,8.99379 z m -4.07119,7.02784 q 0.54179,-1.25387 0.72755,-2.94117 0.20124,-1.70278 0.20124,-4.08667 0,-2.35294 -0.20124,-4.08668 -0.18576,-1.73374 -0.74303,-2.94117 -0.5418,-1.19194 -1.48607,-1.79566 -0.92879,-0.60371 -2.39937,-0.60371 -1.45511,0 -2.41486,0.60371 -0.94427,0.60372 -1.50154,1.82662 -0.52631,1.14551 -0.72755,2.98761 -0.18576,1.8421 -0.18576,4.04024 0,2.41485 0.17028,4.04023 0.17028,1.62539 0.72755,2.91021 0.51083,1.20743 1.43962,1.8421 0.94427,0.63468 2.49226,0.63468 1.4551,0 2.41485,-0.60372 0.95975,-0.60371 1.48607,-1.82662 z"
         style="font-style:normal;font-weight:normal;font-size:31.70270000000000010px;line-height:1.25;font-family:sans-serif;fill:#000080;fill-opacity:1;stroke:none;stroke-width:1.08077"
         id="path16937" />
      <path
         d="m 804.40155,166.18768 h -12.47674 v -2.35293 h 4.79875 v -15.44888 h -4.79875 v -2.10525 q 0.97523,0 2.08978,-0.1548 1.11454,-0.17028 1.6873,-0.47988 0.71207,-0.38699 1.11455,-0.97523 0.41795,-0.60371 0.47987,-1.6099 h 2.39937 v 20.77394 h 4.70587 z"
         style="font-style:normal;font-weight:normal;font-size:31.70270000000000010px;line-height:1.25;font-family:sans-serif;fill:#000080;fill-opacity:1;stroke:none;stroke-width:1.08077"
         id="path16945" />
      <path
         d="m 825.87208,154.65521 q 0,6.20741 -1.95046,9.11762 -1.93498,2.89473 -6.02165,2.89473 -4.1486,0 -6.0681,-2.94117 -1.90402,-2.94117 -1.90402,-9.04022 0,-6.1455 1.93498,-9.07119 1.93498,-2.94116 6.03714,-2.94116 4.14859,0 6.05261,2.9876 1.9195,2.97213 1.9195,8.99379 z m -4.0712,7.02784 q 0.5418,-1.25387 0.72756,-2.94117 0.20123,-1.70278 0.20123,-4.08667 0,-2.35294 -0.20123,-4.08668 -0.18576,-1.73374 -0.74304,-2.94117 -0.54179,-1.19194 -1.48606,-1.79566 -0.92879,-0.60371 -2.39937,-0.60371 -1.45511,0 -2.41486,0.60371 -0.94427,0.60372 -1.50154,1.82662 -0.52632,1.14551 -0.72755,2.98761 -0.18576,1.8421 -0.18576,4.04024 0,2.41485 0.17028,4.04023 0.17027,1.62539 0.72755,2.91021 0.51083,1.20743 1.43962,1.8421 0.94427,0.63468 2.49226,0.63468 1.4551,0 2.41485,-0.60372 0.95975,-0.60371 1.48606,-1.82662 z"
         style="font-style:normal;font-weight:normal;font-size:31.70270000000000010px;line-height:1.25;font-family:sans-serif;fill:#000080;fill-opacity:1;stroke:none;stroke-width:1.08077"
         id="path16947" />
      <path
         d="M 956.84694,166.18768 H 944.3702 v -2.35293 h 4.79875 v -15.44888 h -4.79875 v -2.10525 q 0.97523,0 2.08977,-0.1548 1.11455,-0.17028 1.68731,-0.47988 0.71207,-0.38699 1.11454,-0.97523 0.41796,-0.60371 0.47988,-1.6099 h 2.39937 v 20.77394 h 4.70587 z"
         style="font-style:normal;font-weight:normal;font-size:31.70270000000000010px;line-height:1.25;font-family:sans-serif;fill:#000080;fill-opacity:1;stroke:none;stroke-width:1.08077"
         id="path16959" />
      <path
         d="M 977.03264,166.18768 H 964.5559 v -2.35293 h 4.79874 v -15.44888 h -4.79874 v -2.10525 q 0.97523,0 2.08977,-0.1548 1.11455,-0.17028 1.68731,-0.47988 0.71207,-0.38699 1.11454,-0.97523 0.41796,-0.60371 0.47988,-1.6099 h 2.39937 v 20.77394 h 4.70587 z"
         style="font-style:normal;font-weight:normal;font-size:31.70270000000000010px;line-height:1.25;font-family:sans-serif;fill:#000080;fill-opacity:1;stroke:none;stroke-width:1.08077"
         id="path16961" />
      <path
         d="m 1037.5898,166.18768 h -12.4768 v -2.35293 h 4.7988 v -15.44888 h -4.7988 v -2.10525 q 0.9753,0 2.0898,-0.1548 1.1146,-0.17028 1.6873,-0.47988 0.7121,-0.38699 1.1146,-0.97523 0.4179,-0.60371 0.4798,-1.6099 h 2.3994 v 20.77394 h 4.7059 z"
         style="font-style:normal;font-weight:normal;font-size:31.70270000000000010px;line-height:1.25;font-family:sans-serif;fill:#000080;fill-opacity:1;stroke:none;stroke-width:1.08077"
         id="path16967" />
      <path
         d="m 1057.7755,166.18768 h -12.4768 v -2.35293 h 4.7988 v -15.44888 h -4.7988 v -2.10525 q 0.9753,0 2.0898,-0.1548 1.1146,-0.17028 1.6873,-0.47988 0.7121,-0.38699 1.1146,-0.97523 0.4179,-0.60371 0.4798,-1.6099 h 2.3994 v 20.77394 h 4.7059 z"
         style="font-style:normal;font-weight:normal;font-size:31.70270000000000010px;line-height:1.25;font-family:sans-serif;fill:#000080;fill-opacity:1;stroke:none;stroke-width:1.08077"
         id="path16969" />
      <path
         d="m 611.58474,205.81606 h -12.47675 v -2.35294 h 4.79875 v -15.44887 h -4.79875 v -2.10526 q 0.97523,0 2.08978,-0.1548 1.11455,-0.17028 1.6873,-0.47987 0.71208,-0.387 1.11455,-0.97523 0.41796,-0.60371 0.47988,-1.6099 h 2.39937 v 20.77393 h 4.70587 z"
         style="font-style:normal;font-weight:normal;font-size:31.70270000000000010px;line-height:1.25;font-family:sans-serif;fill:#000080;fill-opacity:1;stroke:none;stroke-width:1.08077"
         id="path16975" />
      <path
         d="M 631.77044,205.81606 H 619.2937 v -2.35294 h 4.79875 v -15.44887 h -4.79875 v -2.10526 q 0.97523,0 2.08977,-0.1548 1.11455,-0.17028 1.68731,-0.47987 0.71207,-0.387 1.11454,-0.97523 0.41796,-0.60371 0.47988,-1.6099 h 2.39937 v 20.77393 h 4.70587 z"
         style="font-style:normal;font-weight:normal;font-size:31.70270000000000010px;line-height:1.25;font-family:sans-serif;fill:#000080;fill-opacity:1;stroke:none;stroke-width:1.08077"
         id="path16977" />
      <path
         d="M 692.32755,205.81606 H 679.8508 v -2.35294 h 4.79875 v -15.44887 h -4.79875 v -2.10526 q 0.97523,0 2.08978,-0.1548 1.11455,-0.17028 1.6873,-0.47987 0.71207,-0.387 1.11455,-0.97523 0.41796,-0.60371 0.47988,-1.6099 h 2.39937 v 20.77393 h 4.70587 z"
         style="font-style:normal;font-weight:normal;font-size:31.70270000000000010px;line-height:1.25;font-family:sans-serif;fill:#000080;fill-opacity:1;stroke:none;stroke-width:1.08077"
         id="path16983" />
      <path
         d="m 713.79808,194.28358 q 0,6.20741 -1.95046,9.11762 -1.93498,2.89473 -6.02165,2.89473 -4.1486,0 -6.0681,-2.94117 -1.90402,-2.94116 -1.90402,-9.04022 0,-6.14549 1.93498,-9.07118 1.93498,-2.94117 6.03714,-2.94117 4.14859,0 6.05261,2.98761 1.9195,2.97213 1.9195,8.99378 z m -4.07119,7.02785 q 0.54179,-1.25387 0.72755,-2.94117 0.20124,-1.70278 0.20124,-4.08668 0,-2.35293 -0.20124,-4.08667 -0.18576,-1.73375 -0.74303,-2.94117 -0.5418,-1.19195 -1.48607,-1.79566 -0.92879,-0.60372 -2.39937,-0.60372 -1.45511,0 -2.41486,0.60372 -0.94427,0.60371 -1.50154,1.82662 -0.52631,1.1455 -0.72755,2.9876 -0.18576,1.8421 -0.18576,4.04024 0,2.41486 0.17028,4.04024 0.17028,1.62538 0.72755,2.91021 0.51083,1.20742 1.43962,1.8421 0.94427,0.63467 2.49226,0.63467 1.4551,0 2.41485,-0.60371 0.95975,-0.60372 1.48607,-1.82662 z"
         style="font-style:normal;font-weight:normal;font-size:31.70270000000000010px;line-height:1.25;font-family:sans-serif;fill:#000080;fill-opacity:1;stroke:none;stroke-width:1.08077"
         id="path16985" />
      <path
         d="m 844.77295,205.81606 h -12.47674 v -2.35294 h 4.79875 v -15.44887 h -4.79875 v -2.10526 q 0.97523,0 2.08977,-0.1548 1.11455,-0.17028 1.68731,-0.47987 0.71207,-0.387 1.11454,-0.97523 0.41796,-0.60371 0.47988,-1.6099 h 2.39937 v 20.77393 h 4.70587 z"
         style="font-style:normal;font-weight:normal;font-size:31.70270000000000010px;line-height:1.25;font-family:sans-serif;fill:#000080;fill-opacity:1;stroke:none;stroke-width:1.08077"
         id="path16997" />
      <path
         d="m 864.95867,205.81606 h -12.47675 v -2.35294 h 4.79875 v -15.44887 h -4.79875 v -2.10526 q 0.97523,0 2.08978,-0.1548 1.11455,-0.17028 1.6873,-0.47987 0.71207,-0.387 1.11455,-0.97523 0.41795,-0.60371 0.47987,-1.6099 h 2.39938 v 20.77393 h 4.70587 z"
         style="font-style:normal;font-weight:normal;font-size:31.70270000000000010px;line-height:1.25;font-family:sans-serif;fill:#000080;fill-opacity:1;stroke:none;stroke-width:1.08077"
         id="path16999" />
      <path
         d="M 956.84694,205.81606 H 944.3702 v -2.35294 h 4.79875 v -15.44887 h -4.79875 v -2.10526 q 0.97523,0 2.08977,-0.1548 1.11455,-0.17028 1.68731,-0.47987 0.71207,-0.387 1.11454,-0.97523 0.41796,-0.60371 0.47988,-1.6099 h 2.39937 v 20.77393 h 4.70587 z"
         style="font-style:normal;font-weight:normal;font-size:31.70270000000000010px;line-height:1.25;font-family:sans-serif;fill:#000080;fill-opacity:1;stroke:none;stroke-width:1.08077"
         id="path17007" />
      <path
         d="M 977.03264,205.81606 H 964.5559 v -2.35294 h 4.79874 v -15.44887 h -4.79874 v -2.10526 q 0.97523,0 2.08977,-0.1548 1.11455,-0.17028 1.68731,-0.47987 0.71207,-0.387 1.11454,-0.97523 0.41796,-0.60371 0.47988,-1.6099 h 2.39937 v 20.77393 h 4.70587 z"
         style="font-style:normal;font-weight:normal;font-size:31.70270000000000010px;line-height:1.25;font-family:sans-serif;fill:#000080;fill-opacity:1;stroke:none;stroke-width:1.08077"
         id="path17009" />
      <path
         d="m 1037.5898,205.81606 h -12.4768 v -2.35294 h 4.7988 v -15.44887 h -4.7988 v -2.10526 q 0.9753,0 2.0898,-0.1548 1.1146,-0.17028 1.6873,-0.47987 0.7121,-0.387 1.1146,-0.97523 0.4179,-0.60371 0.4798,-1.6099 h 2.3994 v 20.77393 h 4.7059 z"
         style="font-style:normal;font-weight:normal;font-size:31.70270000000000010px;line-height:1.25;font-family:sans-serif;fill:#000080;fill-opacity:1;stroke:none;stroke-width:1.08077"
         id="path17015" />
      <path
         d="m 1057.7755,205.81606 h -12.4768 v -2.35294 h 4.7988 v -15.44887 h -4.7988 v -2.10526 q 0.9753,0 2.0898,-0.1548 1.1146,-0.17028 1.6873,-0.47987 0.7121,-0.387 1.1146,-0.97523 0.4179,-0.60371 0.4798,-1.6099 h 2.3994 v 20.77393 h 4.7059 z"
         style="font-style:normal;font-weight:normal;font-size:31.70270000000000010px;line-height:1.25;font-family:sans-serif;fill:#000080;fill-opacity:1;stroke:none;stroke-width:1.08077"
         id="path17017" />
      <path
         d="m 611.58474,244.65544 h -12.47675 v -2.35293 h 4.79875 v -15.44888 h -4.79875 v -2.10526 q 0.97523,0 2.08978,-0.15479 1.11455,-0.17028 1.6873,-0.47988 0.71208,-0.38699 1.11455,-0.97523 0.41796,-0.60371 0.47988,-1.6099 h 2.39937 v 20.77394 h 4.70587 z"
         style="font-style:normal;font-weight:normal;font-size:31.70270000000000010px;line-height:1.25;font-family:sans-serif;fill:#000080;fill-opacity:1;stroke:none;stroke-width:1.08077"
         id="path17024" />
      <path
         d="M 631.77044,244.65544 H 619.2937 v -2.35293 h 4.79875 v -15.44888 h -4.79875 v -2.10526 q 0.97523,0 2.08977,-0.15479 1.11455,-0.17028 1.68731,-0.47988 0.71207,-0.38699 1.11454,-0.97523 0.41796,-0.60371 0.47988,-1.6099 h 2.39937 v 20.77394 h 4.70587 z"
         style="font-style:normal;font-weight:normal;font-size:31.70270000000000010px;line-height:1.25;font-family:sans-serif;fill:#000080;fill-opacity:1;stroke:none;stroke-width:1.08077"
         id="path17026" />
      <path
         d="M 692.32755,244.65544 H 679.8508 v -2.35293 h 4.79875 v -15.44888 h -4.79875 v -2.10526 q 0.97523,0 2.08978,-0.15479 1.11455,-0.17028 1.6873,-0.47988 0.71207,-0.38699 1.11455,-0.97523 0.41796,-0.60371 0.47988,-1.6099 h 2.39937 v 20.77394 h 4.70587 z"
         style="font-style:normal;font-weight:normal;font-size:31.70270000000000010px;line-height:1.25;font-family:sans-serif;fill:#000080;fill-opacity:1;stroke:none;stroke-width:1.08077"
         id="path17032" />
      <path
         d="m 712.51326,244.65544 h -12.47675 v -2.35293 h 4.79875 v -15.44888 h -4.79875 v -2.10526 q 0.97523,0 2.08978,-0.15479 1.11455,-0.17028 1.6873,-0.47988 0.71207,-0.38699 1.11455,-0.97523 0.41795,-0.60371 0.47987,-1.6099 h 2.39938 v 20.77394 h 4.70587 z"
         style="font-style:normal;font-weight:normal;font-size:31.70270000000000010px;line-height:1.25;font-family:sans-serif;fill:#000080;fill-opacity:1;stroke:none;stroke-width:1.08077"
         id="path17034" />
      <path
         d="m 866.24349,233.12297 q 0,6.20741 -1.95046,9.11762 -1.93497,2.89473 -6.02165,2.89473 -4.1486,0 -6.0681,-2.94117 -1.90401,-2.94117 -1.90401,-9.04023 0,-6.14549 1.93497,-9.07118 1.93498,-2.94117 6.03714,-2.94117 4.14859,0 6.05261,2.98761 1.9195,2.97213 1.9195,8.99379 z m -4.07119,7.02784 q 0.54179,-1.25387 0.72755,-2.94117 0.20124,-1.70278 0.20124,-4.08667 0,-2.35294 -0.20124,-4.08668 -0.18576,-1.73374 -0.74303,-2.94117 -0.5418,-1.19195 -1.48607,-1.79566 -0.92879,-0.60371 -2.39937,-0.60371 -1.4551,0 -2.41485,0.60371 -0.94427,0.60371 -1.50155,1.82662 -0.52631,1.14551 -0.72755,2.98761 -0.18576,1.8421 -0.18576,4.04023 0,2.41486 0.17028,4.04024 0.17028,1.62538 0.72755,2.91021 0.51084,1.20743 1.43963,1.8421 0.94427,0.63467 2.49225,0.63467 1.4551,0 2.41485,-0.60371 0.95975,-0.60371 1.48607,-1.82662 z"
         style="font-style:normal;font-weight:normal;font-size:31.70270000000000010px;line-height:1.25;font-family:sans-serif;fill:#000080;fill-opacity:1;stroke:none;stroke-width:1.08077"
         id="path17048" />
      <path
         d="m 886.42919,233.12297 q 0,6.20741 -1.95046,9.11762 -1.93497,2.89473 -6.02165,2.89473 -4.1486,0 -6.0681,-2.94117 -1.90402,-2.94117 -1.90402,-9.04023 0,-6.14549 1.93498,-9.07118 1.93498,-2.94117 6.03714,-2.94117 4.14859,0 6.05261,2.98761 1.9195,2.97213 1.9195,8.99379 z m -4.07119,7.02784 q 0.54179,-1.25387 0.72755,-2.94117 0.20124,-1.70278 0.20124,-4.08667 0,-2.35294 -0.20124,-4.08668 -0.18576,-1.73374 -0.74303,-2.94117 -0.5418,-1.19195 -1.48607,-1.79566 -0.92879,-0.60371 -2.39937,-0.60371 -1.45511,0 -2.41486,0.60371 -0.94426,0.60371 -1.50154,1.82662 -0.52631,1.14551 -0.72755,2.98761 -0.18576,1.8421 -0.18576,4.04023 0,2.41486 0.17028,4.04024 0.17028,1.62538 0.72755,2.91021 0.51084,1.20743 1.43963,1.8421 0.94427,0.63467 2.49225,0.63467 1.4551,0 2.41485,-0.60371 0.95975,-0.60371 1.48607,-1.82662 z"
         style="font-style:normal;font-weight:normal;font-size:31.70270000000000010px;line-height:1.25;font-family:sans-serif;fill:#000080;fill-opacity:1;stroke:none;stroke-width:1.08077"
         id="path17050" />
      <path
         d="M 956.84694,244.65544 H 944.3702 v -2.35293 h 4.79875 v -15.44888 h -4.79875 v -2.10526 q 0.97523,0 2.08977,-0.15479 1.11455,-0.17028 1.68731,-0.47988 0.71207,-0.38699 1.11454,-0.97523 0.41796,-0.60371 0.47988,-1.6099 h 2.39937 v 20.77394 h 4.70587 z"
         style="font-style:normal;font-weight:normal;font-size:31.70270000000000010px;line-height:1.25;font-family:sans-serif;fill:#000080;fill-opacity:1;stroke:none;stroke-width:1.08077"
         id="path17056" />
      <path
         d="M 977.03264,244.65544 H 964.5559 v -2.35293 h 4.79874 v -15.44888 h -4.79874 v -2.10526 q 0.97523,0 2.08977,-0.15479 1.11455,-0.17028 1.68731,-0.47988 0.71207,-0.38699 1.11454,-0.97523 0.41796,-0.60371 0.47988,-1.6099 h 2.39937 v 20.77394 h 4.70587 z"
         style="font-style:normal;font-weight:normal;font-size:31.70270000000000010px;line-height:1.25;font-family:sans-serif;fill:#000080;fill-opacity:1;stroke:none;stroke-width:1.08077"
         id="path17058" />
      <path
         d="m 1037.5898,244.65544 h -12.4768 v -2.35293 h 4.7988 v -15.44888 h -4.7988 v -2.10526 q 0.9753,0 2.0898,-0.15479 1.1146,-0.17028 1.6873,-0.47988 0.7121,-0.38699 1.1146,-0.97523 0.4179,-0.60371 0.4798,-1.6099 h 2.3994 v 20.77394 h 4.7059 z"
         style="font-style:normal;font-weight:normal;font-size:31.70270000000000010px;line-height:1.25;font-family:sans-serif;fill:#000080;fill-opacity:1;stroke:none;stroke-width:1.08077"
         id="path17064" />
      <path
         d="m 1059.0603,233.12297 q 0,6.20741 -1.9505,9.11762 -1.9349,2.89473 -6.0216,2.89473 -4.1486,0 -6.0681,-2.94117 -1.904,-2.94117 -1.904,-9.04023 0,-6.14549 1.9349,-9.07118 1.935,-2.94117 6.0372,-2.94117 4.1486,0 6.0526,2.98761 1.9195,2.97213 1.9195,8.99379 z m -4.0712,7.02784 q 0.5418,-1.25387 0.7276,-2.94117 0.2012,-1.70278 0.2012,-4.08667 0,-2.35294 -0.2012,-4.08668 -0.1858,-1.73374 -0.7431,-2.94117 -0.5418,-1.19195 -1.486,-1.79566 -0.9288,-0.60371 -2.3994,-0.60371 -1.4551,0 -2.4149,0.60371 -0.9442,0.60371 -1.5015,1.82662 -0.5263,1.14551 -0.7276,2.98761 -0.1857,1.8421 -0.1857,4.04023 0,2.41486 0.1703,4.04024 0.1702,1.62538 0.7275,2.91021 0.5108,1.20743 1.4396,1.8421 0.9443,0.63467 2.4923,0.63467 1.4551,0 2.4148,-0.60371 0.9598,-0.60371 1.4861,-1.82662 z"
         style="font-style:normal;font-weight:normal;font-size:31.70270000000000010px;line-height:1.25;font-family:sans-serif;fill:#000080;fill-opacity:1;stroke:none;stroke-width:1.08077"
         id="path17066" />
      <path
         d="m 611.58474,284.28382 h -12.47675 v -2.35294 h 4.79875 v -15.44887 h -4.79875 v -2.10526 q 0.97523,0 2.08978,-0.1548 1.11455,-0.17028 1.6873,-0.47987 0.71208,-0.387 1.11455,-0.97523 0.41796,-0.60372 0.47988,-1.60991 h 2.39937 v 20.77394 h 4.70587 z"
         style="font-style:normal;font-weight:normal;font-size:31.70270000000000010px;line-height:1.25;font-family:sans-serif;fill:#000080;fill-opacity:1;stroke:none;stroke-width:1.08077"
         id="path17072" />
      <path
         d="M 631.77044,284.28382 H 619.2937 v -2.35294 h 4.79875 v -15.44887 h -4.79875 v -2.10526 q 0.97523,0 2.08977,-0.1548 1.11455,-0.17028 1.68731,-0.47987 0.71207,-0.387 1.11454,-0.97523 0.41796,-0.60372 0.47988,-1.60991 h 2.39937 v 20.77394 h 4.70587 z"
         style="font-style:normal;font-weight:normal;font-size:31.70270000000000010px;line-height:1.25;font-family:sans-serif;fill:#000080;fill-opacity:1;stroke:none;stroke-width:1.08077"
         id="path17074" />
      <path
         d="m 653.24097,272.75134 q 0,6.20741 -1.95046,9.11762 -1.93498,2.89473 -6.02165,2.89473 -4.1486,0 -6.0681,-2.94117 -1.90402,-2.94117 -1.90402,-9.04022 0,-6.14549 1.93498,-9.07118 1.93498,-2.94117 6.03714,-2.94117 4.14859,0 6.05261,2.98761 1.9195,2.97212 1.9195,8.99378 z m -4.07119,7.02784 q 0.54179,-1.25386 0.72755,-2.94116 0.20124,-1.70279 0.20124,-4.08668 0,-2.35294 -0.20124,-4.08668 -0.18576,-1.73374 -0.74303,-2.94116 -0.5418,-1.19195 -1.48607,-1.79567 -0.92879,-0.60371 -2.39937,-0.60371 -1.45511,0 -2.41486,0.60371 -0.94427,0.60372 -1.50154,1.82662 -0.52631,1.14551 -0.72755,2.98761 -0.18576,1.8421 -0.18576,4.04024 0,2.41485 0.17028,4.04024 0.17028,1.62538 0.72755,2.9102 0.51083,1.20743 1.43962,1.8421 0.94427,0.63468 2.49226,0.63468 1.4551,0 2.41485,-0.60372 0.95975,-0.60371 1.48607,-1.82662 z"
         style="font-style:normal;font-weight:normal;font-size:31.70270000000000010px;line-height:1.25;font-family:sans-serif;fill:#000080;fill-opacity:1;stroke:none;stroke-width:1.08077"
         id="path17076" />
      <path
         d="M 672.14185,284.28382 H 659.6651 v -2.35294 h 4.79875 v -15.44887 h -4.79875 v -2.10526 q 0.97523,0 2.08978,-0.1548 1.11455,-0.17028 1.6873,-0.47987 0.71208,-0.387 1.11455,-0.97523 0.41796,-0.60372 0.47988,-1.60991 h 2.39937 v 20.77394 h 4.70587 z"
         style="font-style:normal;font-weight:normal;font-size:31.70270000000000010px;line-height:1.25;font-family:sans-serif;fill:#000080;fill-opacity:1;stroke:none;stroke-width:1.08077"
         id="path17078" />
      <path
         d="m 784.21584,284.28382 h -12.47675 v -2.35294 h 4.79875 v -15.44887 h -4.79875 v -2.10526 q 0.97523,0 2.08978,-0.1548 1.11455,-0.17028 1.6873,-0.47987 0.71208,-0.387 1.11455,-0.97523 0.41796,-0.60372 0.47988,-1.60991 h 2.39937 v 20.77394 h 4.70587 z"
         style="font-style:normal;font-weight:normal;font-size:31.70270000000000010px;line-height:1.25;font-family:sans-serif;fill:#000080;fill-opacity:1;stroke:none;stroke-width:1.08077"
         id="path17088" />
      <path
         d="m 804.40155,284.28382 h -12.47674 v -2.35294 h 4.79875 v -15.44887 h -4.79875 v -2.10526 q 0.97523,0 2.08978,-0.1548 1.11454,-0.17028 1.6873,-0.47987 0.71207,-0.387 1.11455,-0.97523 0.41795,-0.60372 0.47987,-1.60991 h 2.39937 v 20.77394 h 4.70587 z"
         style="font-style:normal;font-weight:normal;font-size:31.70270000000000010px;line-height:1.25;font-family:sans-serif;fill:#000080;fill-opacity:1;stroke:none;stroke-width:1.08077"
         id="path17090" />
      <path
         d="m 825.87208,272.75134 q 0,6.20741 -1.95046,9.11762 -1.93498,2.89473 -6.02165,2.89473 -4.1486,0 -6.0681,-2.94117 -1.90402,-2.94117 -1.90402,-9.04022 0,-6.14549 1.93498,-9.07118 1.93498,-2.94117 6.03714,-2.94117 4.14859,0 6.05261,2.98761 1.9195,2.97212 1.9195,8.99378 z m -4.0712,7.02784 q 0.5418,-1.25386 0.72756,-2.94116 0.20123,-1.70279 0.20123,-4.08668 0,-2.35294 -0.20123,-4.08668 -0.18576,-1.73374 -0.74304,-2.94116 -0.54179,-1.19195 -1.48606,-1.79567 -0.92879,-0.60371 -2.39937,-0.60371 -1.45511,0 -2.41486,0.60371 -0.94427,0.60372 -1.50154,1.82662 -0.52632,1.14551 -0.72755,2.98761 -0.18576,1.8421 -0.18576,4.04024 0,2.41485 0.17028,4.04024 0.17027,1.62538 0.72755,2.9102 0.51083,1.20743 1.43962,1.8421 0.94427,0.63468 2.49226,0.63468 1.4551,0 2.41485,-0.60372 0.95975,-0.60371 1.48606,-1.82662 z"
         style="font-style:normal;font-weight:normal;font-size:31.70270000000000010px;line-height:1.25;font-family:sans-serif;fill:#000080;fill-opacity:1;stroke:none;stroke-width:1.08077"
         id="path17092" />
      <path
         d="m 846.05778,272.75134 q 0,6.20741 -1.95046,9.11762 -1.93498,2.89473 -6.02166,2.89473 -4.14859,0 -6.06809,-2.94117 -1.90402,-2.94117 -1.90402,-9.04022 0,-6.14549 1.93498,-9.07118 1.93498,-2.94117 6.03713,-2.94117 4.1486,0 6.05262,2.98761 1.9195,2.97212 1.9195,8.99378 z m -4.0712,7.02784 q 0.5418,-1.25386 0.72756,-2.94116 0.20123,-1.70279 0.20123,-4.08668 0,-2.35294 -0.20123,-4.08668 -0.18576,-1.73374 -0.74304,-2.94116 -0.54179,-1.19195 -1.48606,-1.79567 -0.92879,-0.60371 -2.39938,-0.60371 -1.4551,0 -2.41485,0.60371 -0.94427,0.60372 -1.50154,1.82662 -0.52632,1.14551 -0.72756,2.98761 -0.18575,1.8421 -0.18575,4.04024 0,2.41485 0.17027,4.04024 0.17028,1.62538 0.72756,2.9102 0.51083,1.20743 1.43962,1.8421 0.94427,0.63468 2.49225,0.63468 1.45511,0 2.41486,-0.60372 0.95975,-0.60371 1.48606,-1.82662 z"
         style="font-style:normal;font-weight:normal;font-size:31.70270000000000010px;line-height:1.25;font-family:sans-serif;fill:#000080;fill-opacity:1;stroke:none;stroke-width:1.08077"
         id="path17094" />
      <path
         d="m 864.95867,284.28382 h -12.47675 v -2.35294 h 4.79875 v -15.44887 h -4.79875 v -2.10526 q 0.97523,0 2.08978,-0.1548 1.11455,-0.17028 1.6873,-0.47987 0.71207,-0.387 1.11455,-0.97523 0.41795,-0.60372 0.47987,-1.60991 h 2.39938 v 20.77394 h 4.70587 z"
         style="font-style:normal;font-weight:normal;font-size:31.70270000000000010px;line-height:1.25;font-family:sans-serif;fill:#000080;fill-opacity:1;stroke:none;stroke-width:1.08077"
         id="path17096" />
      <path
         d="m 886.42919,272.75134 q 0,6.20741 -1.95046,9.11762 -1.93497,2.89473 -6.02165,2.89473 -4.1486,0 -6.0681,-2.94117 -1.90402,-2.94117 -1.90402,-9.04022 0,-6.14549 1.93498,-9.07118 1.93498,-2.94117 6.03714,-2.94117 4.14859,0 6.05261,2.98761 1.9195,2.97212 1.9195,8.99378 z m -4.07119,7.02784 q 0.54179,-1.25386 0.72755,-2.94116 0.20124,-1.70279 0.20124,-4.08668 0,-2.35294 -0.20124,-4.08668 -0.18576,-1.73374 -0.74303,-2.94116 -0.5418,-1.19195 -1.48607,-1.79567 -0.92879,-0.60371 -2.39937,-0.60371 -1.45511,0 -2.41486,0.60371 -0.94426,0.60372 -1.50154,1.82662 -0.52631,1.14551 -0.72755,2.98761 -0.18576,1.8421 -0.18576,4.04024 0,2.41485 0.17028,4.04024 0.17028,1.62538 0.72755,2.9102 0.51084,1.20743 1.43963,1.8421 0.94427,0.63468 2.49225,0.63468 1.4551,0 2.41485,-0.60372 0.95975,-0.60371 1.48607,-1.82662 z"
         style="font-style:normal;font-weight:normal;font-size:31.70270000000000010px;line-height:1.25;font-family:sans-serif;fill:#000080;fill-opacity:1;stroke:none;stroke-width:1.08077"
         id="path17098" />
      <path
         d="M 956.84694,284.28382 H 944.3702 v -2.35294 h 4.79875 v -15.44887 h -4.79875 v -2.10526 q 0.97523,0 2.08977,-0.1548 1.11455,-0.17028 1.68731,-0.47987 0.71207,-0.387 1.11454,-0.97523 0.41796,-0.60372 0.47988,-1.60991 h 2.39937 v 20.77394 h 4.70587 z"
         style="font-style:normal;font-weight:normal;font-size:31.70270000000000010px;line-height:1.25;font-family:sans-serif;fill:#000080;fill-opacity:1;stroke:none;stroke-width:1.08077"
         id="path17104" />
      <path
         d="M 977.03264,284.28382 H 964.5559 v -2.35294 h 4.79874 v -15.44887 h -4.79874 v -2.10526 q 0.97523,0 2.08977,-0.1548 1.11455,-0.17028 1.68731,-0.47987 0.71207,-0.387 1.11454,-0.97523 0.41796,-0.60372 0.47988,-1.60991 h 2.39937 v 20.77394 h 4.70587 z"
         style="font-style:normal;font-weight:normal;font-size:31.70270000000000010px;line-height:1.25;font-family:sans-serif;fill:#000080;fill-opacity:1;stroke:none;stroke-width:1.08077"
         id="path17106" />
      <path
         d="m 997.21837,284.28382 h -12.47674 v -2.35294 h 4.79874 v -15.44887 h -4.79874 v -2.10526 q 0.97523,0 2.08977,-0.1548 1.11455,-0.17028 1.68731,-0.47987 0.71207,-0.387 1.11454,-0.97523 0.41796,-0.60372 0.47988,-1.60991 h 2.39937 v 20.77394 h 4.70587 z"
         style="font-style:normal;font-weight:normal;font-size:31.70270000000000010px;line-height:1.25;font-family:sans-serif;fill:#000080;fill-opacity:1;stroke:none;stroke-width:1.08077"
         id="path17108" />
      <path
         d="m 1018.6889,272.75134 q 0,6.20741 -1.9505,9.11762 -1.9349,2.89473 -6.0216,2.89473 -4.1486,0 -6.0681,-2.94117 -1.904,-2.94117 -1.904,-9.04022 0,-6.14549 1.9349,-9.07118 1.935,-2.94117 6.0372,-2.94117 4.1486,0 6.0526,2.98761 1.9195,2.97212 1.9195,8.99378 z m -4.0712,7.02784 q 0.5418,-1.25386 0.7276,-2.94116 0.2012,-1.70279 0.2012,-4.08668 0,-2.35294 -0.2012,-4.08668 -0.1858,-1.73374 -0.7431,-2.94116 -0.5418,-1.19195 -1.486,-1.79567 -0.9288,-0.60371 -2.3994,-0.60371 -1.4551,0 -2.4149,0.60371 -0.9442,0.60372 -1.5015,1.82662 -0.5263,1.14551 -0.7276,2.98761 -0.1857,1.8421 -0.1857,4.04024 0,2.41485 0.1703,4.04024 0.1702,1.62538 0.7275,2.9102 0.5108,1.20743 1.4396,1.8421 0.9443,0.63468 2.4923,0.63468 1.4551,0 2.4148,-0.60372 0.9598,-0.60371 1.4861,-1.82662 z"
         style="font-style:normal;font-weight:normal;font-size:31.70270000000000010px;line-height:1.25;font-family:sans-serif;fill:#000080;fill-opacity:1;stroke:none;stroke-width:1.08077"
         id="path17110" />
      <path
         d="m 1038.8746,272.75134 q 0,6.20741 -1.9505,9.11762 -1.9349,2.89473 -6.0216,2.89473 -4.1486,0 -6.0681,-2.94117 -1.904,-2.94117 -1.904,-9.04022 0,-6.14549 1.9349,-9.07118 1.935,-2.94117 6.0372,-2.94117 4.1486,0 6.0526,2.98761 1.9195,2.97212 1.9195,8.99378 z m -4.0712,7.02784 q 0.5418,-1.25386 0.7276,-2.94116 0.2012,-1.70279 0.2012,-4.08668 0,-2.35294 -0.2012,-4.08668 -0.1858,-1.73374 -0.7431,-2.94116 -0.5418,-1.19195 -1.486,-1.79567 -0.9288,-0.60371 -2.3994,-0.60371 -1.4551,0 -2.4149,0.60371 -0.9442,0.60372 -1.5015,1.82662 -0.5263,1.14551 -0.7276,2.98761 -0.1857,1.8421 -0.1857,4.04024 0,2.41485 0.1703,4.04024 0.1702,1.62538 0.7275,2.9102 0.5108,1.20743 1.4396,1.8421 0.9443,0.63468 2.4923,0.63468 1.4551,0 2.4148,-0.60372 0.9598,-0.60371 1.4861,-1.82662 z"
         style="font-style:normal;font-weight:normal;font-size:31.70270000000000010px;line-height:1.25;font-family:sans-serif;fill:#000080;fill-opacity:1;stroke:none;stroke-width:1.08077"
         id="path17112" />
      <path
         d="m 1057.7755,284.28382 h -12.4768 v -2.35294 h 4.7988 v -15.44887 h -4.7988 v -2.10526 q 0.9753,0 2.0898,-0.1548 1.1146,-0.17028 1.6873,-0.47987 0.7121,-0.387 1.1146,-0.97523 0.4179,-0.60372 0.4798,-1.60991 h 2.3994 v 20.77394 h 4.7059 z"
         style="font-style:normal;font-weight:normal;font-size:31.70270000000000010px;line-height:1.25;font-family:sans-serif;fill:#000080;fill-opacity:1;stroke:none;stroke-width:1.08077"
         id="path17114" />
    </g>
  </g>
</svg>
